<svg width="1600" height="1100" viewBox="0 0 1600 1100" fill="none" xmlns="http://www.w3.org/2000/svg">
  <rect width="1600" height="1100" fill="#050505"/>
  <g opacity="0.95">
    <circle cx="1120" cy="520" r="340" stroke="#F2F2F2" stroke-opacity="0.2" stroke-width="2"/>
    <circle cx="1120" cy="520" r="270" stroke="#E8E8E8" stroke-opacity="0.14" stroke-width="2"/>
    <circle cx="1120" cy="520" r="200" stroke="#FFFFFF" stroke-opacity="0.1" stroke-width="1.5"/>
    <path d="M1120 180V860" stroke="#F4F4F4" stroke-opacity="0.16" stroke-width="2"/>
    <path d="M780 520H1460" stroke="#F4F4F4" stroke-opacity="0.16" stroke-width="2"/>
    <path d="M879.6 279.6L1360.4 760.4" stroke="#F4F4F4" stroke-opacity="0.14" stroke-width="2"/>
    <path d="M1360.4 279.6L879.6 760.4" stroke="#F4F4F4" stroke-opacity="0.14" stroke-width="2"/>
  </g>
  <g opacity="0.75">
    <rect x="240" y="240" width="360" height="360" transform="rotate(45 240 240)" stroke="#FAFAFA" stroke-opacity="0.16" stroke-width="2"/>
    <path d="M420 240L600 420L420 600L240 420L420 240Z" stroke="#F5F5F5" stroke-opacity="0.18" stroke-width="2"/>
    <path d="M420 240V600" stroke="#FFFFFF" stroke-opacity="0.12" stroke-width="2"/>
    <path d="M240 420H600" stroke="#FFFFFF" stroke-opacity="0.12" stroke-width="2"/>
    <path d="M300 300L540 540" stroke="#FFFFFF" stroke-opacity="0.1" stroke-width="1.5"/>
    <path d="M540 300L300 540" stroke="#FFFFFF" stroke-opacity="0.1" stroke-width="1.5"/>
  </g>
  <g opacity="0.85">
    <circle cx="1120" cy="520" r="18" fill="#FFFFFF" fill-opacity="0.12"/>
    <circle cx="1120" cy="520" r="8" fill="#FFFFFF" fill-opacity="0.22"/>
    <circle cx="930" cy="360" r="4" fill="#FFFFFF" fill-opacity="0.42"/>
    <circle cx="1285" cy="335" r="3" fill="#FFFFFF" fill-opacity="0.4"/>
    <circle cx="1290" cy="700" r="4" fill="#FFFFFF" fill-opacity="0.36"/>
    <circle cx="980" cy="760" r="3" fill="#FFFFFF" fill-opacity="0.34"/>
    <circle cx="670" cy="165" r="2.5" fill="#FFFFFF" fill-opacity="0.32"/>
    <circle cx="1440" cy="190" r="2.5" fill="#FFFFFF" fill-opacity="0.3"/>
    <circle cx="180" cy="160" r="2.5" fill="#FFFFFF" fill-opacity="0.24"/>
    <circle cx="146" cy="926" r="3" fill="#FFFFFF" fill-opacity="0.2"/>
    <circle cx="1000" cy="118" r="2" fill="#FFFFFF" fill-opacity="0.2"/>
    <circle cx="1210" cy="920" r="2" fill="#FFFFFF" fill-opacity="0.2"/>
  </g>
  <g opacity="0.52" stroke="#FFFFFF" stroke-opacity="0.22" stroke-width="1.6" stroke-linecap="round" stroke-linejoin="round">
    <path d="M1120 228C1148 252 1161 277 1161 308C1161 339 1148 364 1120 389C1092 364 1079 339 1079 308C1079 277 1092 252 1120 228Z"/>
    <path d="M1284 356C1298 396 1296 430 1277 460C1258 490 1231 508 1197 516C1190 478 1196 446 1215 416C1234 386 1257 366 1284 356Z"/>
    <path d="M1320 590C1291 613 1260 622 1227 616C1194 610 1168 593 1148 565C1174 548 1204 540 1237 546C1270 552 1298 567 1320 590Z"/>
    <path d="M1191 760C1151 773 1118 772 1090 756C1062 740 1042 716 1030 684C1063 679 1094 684 1122 700C1150 716 1173 736 1191 760Z"/>
    <path d="M951 742C942 700 948 666 969 638C990 610 1018 592 1053 584C1058 619 1050 651 1029 679C1008 707 982 728 951 742Z"/>
    <path d="M853 535C875 505 902 486 936 479C970 472 1002 477 1032 493C1012 520 985 539 951 546C917 553 885 550 853 535Z"/>
  </g>
  <g opacity="0.16">
    <text x="1004" y="252" fill="#FFFFFF" font-family="Georgia, serif" font-size="26">Sun</text>
    <text x="1328" y="520" fill="#FFFFFF" font-family="Georgia, serif" font-size="22">Moon</text>
    <text x="1110" y="838" fill="#FFFFFF" font-family="Georgia, serif" font-size="22">Rahu</text>
    <text x="330" y="154" fill="#FFFFFF" font-family="Georgia, serif" font-size="28">Kundli</text>
  </g>
  <defs>
    <radialGradient id="glow" cx="0" cy="0" r="1" gradientUnits="userSpaceOnUse" gradientTransform="translate(1120 520) rotate(90) scale(390)">
      <stop stop-color="white" stop-opacity="0.12"/>
      <stop offset="1" stop-color="white" stop-opacity="0"/>
    </radialGradient>
  </defs>
  <circle cx="1120" cy="520" r="390" fill="url(#glow)"/>
</svg>