<svg width="1200" height="800" viewBox="0 0 1200 800" fill="none" xmlns="http://www.w3.org/2000/svg">
  <rect width="1200" height="800" fill="#090909"/>
  <circle cx="880" cy="210" r="150" fill="#F4F4F4" fill-opacity="0.08"/>
  <circle cx="320" cy="130" r="2" fill="#F4F4F4"/>
  <circle cx="400" cy="210" r="1.6" fill="#D9D9D9"/>
  <circle cx="980" cy="120" r="1.8" fill="#F4F4F4"/>
  <circle cx="1040" cy="290" r="1.2" fill="#CFCFCF"/>
  <path d="M602 188C716 188 808 280 808 394C808 508 716 600 602 600C488 600 396 508 396 394C396 280 488 188 602 188Z" stroke="#E4AF56" stroke-opacity="0.85" stroke-width="4"/>
  <circle cx="602" cy="394" r="136" stroke="#E4AF56" stroke-opacity="0.45" stroke-width="2"/>
  <circle cx="602" cy="394" r="88" stroke="#E4AF56" stroke-opacity="0.3" stroke-width="2"/>
  <path d="M602 228V560M436 394H768M493 285L711 503M711 285L493 503" stroke="#F1F1F1" stroke-opacity="0.22" stroke-width="2"/>
  <path d="M598 300C655 300 702 347 702 404C702 461 655 508 598 508C541 508 494 461 494 404C494 347 541 300 598 300Z" fill="#0D0D0D" stroke="#F4F4F4" stroke-opacity="0.4" stroke-width="2"/>
  <path d="M585 322C628 322 663 357 663 400C663 443 628 478 585 478C609 457 624 430 624 400C624 370 609 343 585 322Z" fill="#F4F4F4" fill-opacity="0.9"/>
</svg>
